ffmpeg version 4.2.7-0ubuntu0.1 Copyright (c) 2000-2022 the FFmpeg developers
  built with gcc 9 (Ubuntu 9.4.0-1ubuntu1~20.04.1)
  configuration: --prefix=/usr --extra-version=0ubuntu0.1 --toolchain=hardened --libdir=/usr/lib/x86_64-linux-gnu --incdir=/usr/include/x86_64-linux-gnu --arch=amd64 --enable-gpl --disable-stripping --enable-avresample --disable-filter=resample --enable-avisynth --enable-gnutls --enable-ladspa --enable-libaom --enable-libass --enable-libbluray --enable-libbs2b --enable-libcaca --enable-libcdio --enable-libcodec2 --enable-libflite --enable-libfontconfig --enable-libfreetype --enable-libfribidi --enable-libgme --enable-libgsm --enable-libjack --enable-libmp3lame --enable-libmysofa --enable-libopenjpeg --enable-libopenmpt --enable-libopus --enable-libpulse --enable-librsvg --enable-librubberband --enable-libshine --enable-libsnappy --enable-libsoxr --enable-libspeex --enable-libssh --enable-libtheora --enable-libtwolame --enable-libvidstab --enable-libvorbis --enable-libvpx --enable-libwavpack --enable-libwebp --enable-libx265 --enable-libxml2 --enable-libxvid --enable-libzmq --enable-libzvbi --enable-lv2 --enable-omx --enable-openal --enable-opencl --enable-opengl --enable-sdl2 --enable-libdc1394 --enable-libdrm --enable-libiec61883 --enable-nvenc --enable-chromaprint --enable-frei0r --enable-libx264 --enable-shared
  libavutil      56. 31.100 / 56. 31.100
  libavcodec     58. 54.100 / 58. 54.100
  libavformat    58. 29.100 / 58. 29.100
  libavdevice    58.  8.100 / 58.  8.100
  libavfilter     7. 57.100 /  7. 57.100
  libavresample   4.  0.  0 /  4.  0.  0
  libswscale      5.  5.100 /  5.  5.100
  libswresample   3.  5.100 /  3.  5.100
  libpostproc    55.  5.100 / 55.  5.100
Routing option strict to both codec and muxer layer
[h264 @ 0x55e84e3e1000] Reinit context to 720x1280, pix_fmt: yuv420p
Input #0, mov,mp4,m4a,3gp,3g2,mj2, from '/var/www/html/project/media/video/original/YouCut_20220917_143026867.mp4':
  Metadata:
    major_brand     : isom
    minor_version   : 512
    compatible_brands: isomiso2avc1mp41
    encoder         : Lavf58.76.100
  Duration: 00:00:34.27, start: 0.000000, bitrate: 5455 kb/s
    Stream #0:0(und): Video: h264 (Baseline), 1 reference frame (avc1 / 0x31637661), yuv420p(tv, bt709, left), 720x1272 (720x1280), 5325 kb/s, 30.04 fps, 30 tbr, 1000k tbn, 2000k tbc (default)
    Metadata:
      handler_name    : VideoHandler
    Stream #0:1(und): Audio: aac (LC) (mp4a / 0x6134706D), 44100 Hz, stereo, fltp, 125 kb/s (default)
    Metadata:
      handler_name    : SoundHandler
Input #1, png_pipe, from '/var/www/html/project/static/images/templates/logo_vertical.png':
  Duration: N/A, bitrate: N/A
    Stream #1:0: Video: png, 1 reference frame, rgba(pc), 1920x1080 [SAR 2835:2835 DAR 16:9], 25 tbr, 25 tbn, 25 tbc
[Parsed_scale_1 @ 0x55e84e434380] w:1280 h:720 flags:'bilinear' interl:0
[Parsed_scale_4 @ 0x55e84e3e3a00] w:-1 h:720 flags:'bilinear' interl:0
[Parsed_scale_6 @ 0x55e84e409d00] w:1280 h:720 flags:'bilinear' interl:0
Stream mapping:
  Stream #0:0 (h264) -> split (graph 0)
  Stream #1:0 (png) -> scale (graph 0)
  overlay (graph 0) -> Stream #0:0 (libx264)
  Stream #0:1 -> #0:1 (aac (native) -> aac (native))
Press [q] to stop, [?] for help
[h264 @ 0x55e84e438600] Reinit context to 720x1280, pix_fmt: yuv420p
[graph_1_in_0_1 @ 0x55e84e7d6fc0] tb:1/44100 samplefmt:fltp samplerate:44100 chlayout:0x3
[Parsed_scale_1 @ 0x55e84e8d31c0] w:1280 h:720 flags:'bilinear' interl:0
[Parsed_scale_4 @ 0x55e84ede0700] w:-1 h:720 flags:'bilinear' interl:0
[Parsed_scale_6 @ 0x55e84ede1e40] w:1280 h:720 flags:'bilinear' interl:0
[graph 0 input from stream 0:0 @ 0x55e84ede5140] w:720 h:1272 pixfmt:yuv420p tb:1/1000000 fr:1000000/33333 sar:0/1 sws_param:flags=2
[graph 0 input from stream 1:0 @ 0x55e84ede61c0] w:1920 h:1080 pixfmt:rgba tb:1/25 fr:25/1 sar:2835/2835 sws_param:flags=2
[Parsed_scale_1 @ 0x55e84e8d31c0] w:720 h:1272 fmt:yuv420p sar:0/1 -> w:1280 h:720 fmt:yuv420p sar:0/1 flags:0x2
[Parsed_boxblur_2 @ 0x55e84ed21e00] luma_radius:36 luma_power:1 chroma_radius:18 chroma_power:1 alpha_radius:36 alpha_power:1 w:1280 chroma_w:640 h:720 chroma_h:360
[Parsed_setsar_3 @ 0x55e84eddf9c0] w:1280 h:720 sar:0/1 dar:16/9 -> sar:1/1 dar:16/9
[Parsed_scale_4 @ 0x55e84ede0700] w:720 h:1272 fmt:yuv420p sar:0/1 -> w:408 h:720 fmt:yuva420p sar:0/1 flags:0x2
[Parsed_setsar_5 @ 0x55e84ede1100] w:408 h:720 sar:0/1 dar:17/30 -> sar:1/1 dar:17/30
[Parsed_overlay_8 @ 0x55e84ede3500] main w:1280 h:720 fmt:yuv420p overlay w:408 h:720 fmt:yuva420p
[Parsed_overlay_8 @ 0x55e84ede3500] [framesync @ 0x55e84ede3628] Selected 1/1000000 time base
[Parsed_overlay_8 @ 0x55e84ede3500] [framesync @ 0x55e84ede3628] Sync level 2
[Parsed_scale_6 @ 0x55e84ede1e40] w:1920 h:1080 fmt:rgba sar:2835/2835 -> w:1280 h:720 fmt:yuva420p sar:1/1 flags:0x2
[Parsed_setsar_7 @ 0x55e84ede2940] w:1280 h:720 sar:1/1 dar:16/9 -> sar:1/1 dar:16/9
[Parsed_overlay_9 @ 0x55e84ede43c0] main w:1280 h:720 fmt:yuv420p overlay w:1280 h:720 fmt:yuva420p
[Parsed_overlay_9 @ 0x55e84ede43c0] [framesync @ 0x55e84ede4528] Selected 1/1000000 time base
[Parsed_overlay_9 @ 0x55e84ede43c0] [framesync @ 0x55e84ede4528] Sync level 2
[libx264 @ 0x55e84e40a000] using SAR=1/1
[libx264 @ 0x55e84e40a000] using cpu capabilities: MMX2 SSE2Fast SSSE3 SSE4.2 AVX FMA3 BMI2 AVX2
[libx264 @ 0x55e84e40a000] profile High, level 3.2
[libx264 @ 0x55e84e40a000] 264 - core 155 r2917 0a84d98 - H.264/MPEG-4 AVC codec - Copyleft 2003-2018 - http://www.videolan.org/x264.html - options: cabac=1 ref=1 deblock=1:0:0 analyse=0x3:0x113 me=hex subme=2 psy=1 psy_rd=1.00:0.00 mixed_ref=0 me_range=16 chroma_me=1 trellis=0 8x8dct=1 cqm=0 deadzone=21,11 fast_pskip=1 chroma_qp_offset=0 threads=22 lookahead_threads=5 sliced_threads=0 nr=0 decimate=1 interlaced=0 bluray_compat=0 constrained_intra=0 bframes=3 b_pyramid=2 b_adapt=1 b_bias=0 direct=1 weightb=1 open_gop=0 weightp=1 keyint=250 keyint_min=25 scenecut=40 intra_refresh=0 rc_lookahead=10 rc=crf mbtree=1 crf=18.0 qcomp=0.60 qpmin=0 qpmax=69 qpstep=4 ip_ratio=1.40 aq=1:1.00
Output #0, mp4, to '/var/www/html/project/media/video/watermarks/YouCut_20220917_143026867.mp4':
  Metadata:
    major_brand     : isom
    minor_version   : 512
    compatible_brands: isomiso2avc1mp41
    encoder         : Lavf58.29.100
    Stream #0:0: Video: h264 (libx264), 1 reference frame (avc1 / 0x31637661), yuv420p, 1280x720 [SAR 1:1 DAR 16:9], q=-1--1, 30 fps, 1000k tbn, 30 tbc (default)
    Metadata:
      encoder         : Lavc58.54.100 libx264
    Side data:
      cpb: bitrate max/min/avg: 0/0/0 buffer size: 0 vbv_delay: -1
    Stream #0:1(und): Audio: aac (LC) (mp4a / 0x6134706D), 44100 Hz, stereo, fltp, delay 1024, 128 kb/s (default)
    Metadata:
      handler_name    : SoundHandler
      encoder         : Lavc58.54.100 aac
[Parsed_overlay_8 @ 0x55e84ede3500] [framesync @ 0x55e84ede3628] Sync level 1
[Parsed_overlay_8 @ 0x55e84ede3500] [framesync @ 0x55e84ede3628] Sync level 0
[Parsed_overlay_9 @ 0x55e84ede43c0] [framesync @ 0x55e84ede4528] Sync level 0
No more output streams to write to, finishing.
frame= 1028 fps= 61 q=-1.0 Lsize=    9441kB time=00:00:34.27 bitrate=2256.7kbits/s speed=2.03x    
[AVIOContext @ 0x55e84e3df280] Statistics: 0 seeks, 34 writeouts
video:8864kB audio:540kB subtitle:0kB other streams:0kB global headers:0kB muxing overhead: 0.400929%
Input file #0 (/var/www/html/project/media/video/original/YouCut_20220917_143026867.mp4):
  Input stream #0:0 (video): 1029 packets read (22799246 bytes); 1028 frames decoded; 
  Input stream #0:1 (audio): 1477 packets read (538296 bytes); 1476 frames decoded (1511424 samples); 
  Total: 2506 packets (23337542 bytes) demuxed
Input file #1 (/var/www/html/project/static/images/templates/logo_vertical.png):
  Input stream #1:0 (video): 1 packets read (93903 bytes); 1 frames decoded; 
  Total: 1 packets (93903 bytes) demuxed
Output file #0 (/var/www/html/project/media/video/watermarks/YouCut_20220917_143026867.mp4):
  Output stream #0:0 (video): 1028 frames encoded; 1028 packets muxed (9076481 bytes); 
  Output stream #0:1 (audio): 1476 frames encoded (1511424 samples); 1477 packets muxed (552915 bytes); 
  Total: 2505 packets (9629396 bytes) muxed
[AVIOContext @ 0x55e84e433a40] Statistics: 2 seeks, 40 writeouts
[libx264 @ 0x55e84e40a000] frame I:5     Avg QP:15.11  size: 61079
[libx264 @ 0x55e84e40a000] frame P:258   Avg QP:17.95  size: 20368
[libx264 @ 0x55e84e40a000] frame B:765   Avg QP:19.73  size:  4595
[libx264 @ 0x55e84e40a000] consecutive B-frames:  0.7%  0.0%  0.9% 98.4%
[libx264 @ 0x55e84e40a000] mb I  I16..4: 25.1% 43.0% 31.9%
[libx264 @ 0x55e84e40a000] mb P  I16..4: 14.8% 18.5%  1.9%  P16..4: 23.5% 14.8%  7.3%  0.0%  0.0%    skip:19.2%
[libx264 @ 0x55e84e40a000] mb B  I16..4:  1.7%  1.2%  0.1%  B16..8: 17.9%  6.8%  0.6%  direct: 7.8%  skip:63.8%  L0:40.5% L1:45.7% BI:13.8%
[libx264 @ 0x55e84e40a000] 8x8 transform intra:49.4% inter:22.9%
[libx264 @ 0x55e84e40a000] coded y,uvDC,uvAC intra: 33.6% 39.5% 5.9% inter: 7.0% 13.7% 0.3%
[libx264 @ 0x55e84e40a000] i16 v,h,dc,p: 19% 41%  9% 31%
[libx264 @ 0x55e84e40a000] i8 v,h,dc,ddl,ddr,vr,hd,vl,hu: 19% 40% 14%  3%  5%  5%  7%  3%  3%
[libx264 @ 0x55e84e40a000] i4 v,h,dc,ddl,ddr,vr,hd,vl,hu: 30% 20% 15%  4%  8%  8%  7%  5%  3%
[libx264 @ 0x55e84e40a000] i8c dc,h,v,p: 48% 33% 12%  7%
[libx264 @ 0x55e84e40a000] Weighted P-Frames: Y:0.4% UV:0.0%
[libx264 @ 0x55e84e40a000] kb/s:2118.88
[aac @ 0x55e84e447980] Qavg: 328.258
[AVIOContext @ 0x55e84e3e8240] Statistics: 23426142 bytes read, 2 seeks
[AVIOContext @ 0x55e84e3f6d80] Statistics: 93903 bytes read, 0 seeks
